<?xml version="1.0" standalone="no"?><!DOCTYPE svg PUBLIC "-//W3C//DTD SVG 1.1//EN" "http://www.w3.org/Graphics/SVG/1.1/DTD/svg11.dtd"><svg t="1556508475057" class="icon" style="" viewBox="0 0 1024 1024" version="1.1" xmlns="http://www.w3.org/2000/svg" p-id="4489" xmlns:xlink="http://www.w3.org/1999/xlink" width="64" height="64"><defs><style type="text/css"></style></defs><path d="M562.4649 531.827267m-347.319902 0a347.319903 347.319903 0 1 0 694.639805 0 347.319903 347.319903 0 1 0-694.639805 0Z" fill="#0099FF" opacity=".2" p-id="4490"></path><path d="M969.64641 328.808569A469.535647 469.535647 0 0 1 991.507133 470.53552c0 154.986399-75.368419 292.034746-191.087238 377.618456l88.648297 143.647426-55.693768 30.073817-85.95146-139.275281A467.615172 467.615172 0 0 1 521.603735 940.438918a467.083977 467.083977 0 0 1-235.789352-63.886432l-84.991224 147.243208-53.078653-30.645874 87.116004-150.920713C123.636419 756.298077 51.700338 621.966997 51.700338 470.53552c0-42.78164 6.210897-84.010555 16.916522-123.400718-77.615783-79.9653-77.002865-207.615579 2.063489-286.661504 71.936081-71.956512 184.099979-78.800757 263.963126-20.961777a467.921631 467.921631 0 0 1 360.865379-5.25066C774.759083-18.695209 882.877726-10.236948 952.83204 59.717367c73.509236 73.509236 79.005063 189.085041 16.81437 269.091202zM114.013614 103.806564c-47.439813 47.439813-54.161474 119.743644-21.002639 174.722341a471.006649 471.006649 0 0 1 178.032096-205.041326A142.871063 142.871063 0 0 0 114.013614 103.806564z m407.794427-41.678388c-93.837665 0-180.034293 31.953431-249.007939 85.134237l-56.79702 56.81745 56.79702-56.81745a410.511694 410.511694 0 0 0-74.469474 74.469473l17.672454-17.652023-17.672454 17.652023c-53.180806 68.994077-85.134237 155.170274-85.134237 249.00794 0 225.676214 182.935436 408.61165 408.61165 408.61165 225.655784 0 408.61165-182.935436 408.61165-408.61165 0-70.219912-17.754176-136.251555-48.931245-193.967951l-165.712455-165.712454a406.670745 406.670745 0 0 0-193.96795-48.931245z m359.659975 214.623269a410.34825 410.34825 0 0 0-165.692025-165.692024l165.692025 165.692024z m28.112481-173.762104c-39.308441-39.308441-95.676418-50.300094-145.138858-34.180365a471.170094 471.170094 0 0 1 176.07076 189.636667 142.728049 142.728049 0 0 0-30.931902-155.456302zM603.326065 511.396685h-81.72233a40.861165 40.861165 0 0 1-40.861165-40.861165v-163.44466a40.861165 40.861165 0 1 1 81.72233 0v122.583495h40.861165a40.861165 40.861165 0 0 1 0 81.72233z" fill="#0099FF" p-id="4491"></path></svg>