<?xml version="1.0" standalone="no"?><!DOCTYPE svg PUBLIC "-//W3C//DTD SVG 1.1//EN" "http://www.w3.org/Graphics/SVG/1.1/DTD/svg11.dtd"><svg t="1557027824849" class="icon" style="" viewBox="0 0 1029 1024" version="1.1" xmlns="http://www.w3.org/2000/svg" p-id="5990" xmlns:xlink="http://www.w3.org/1999/xlink" width="64.3125" height="64"><defs><style type="text/css"></style></defs><path d="M150.516877 809.693837l26.7351 214.306163h782.911474l26.719345-214.306163z" p-id="5991"></path><path d="M1008.387458 318.190221c-29.53937-22.654728-71.382873 1.480907-71.382873 1.480907l-174.290163 115.699806L560.554848 203.545955a107.176713 107.176713 0 0 0 60.008246-96.211699 107.350011 107.350011 0 0 0-214.668513 0 107.223976 107.223976 0 0 0 62.954307 97.629589L256.118157 432.40912l-156.062401-108.799409c-44.805317-25.600788-72.86378-6.396258-72.863781-6.396258-37.90492 23.631496-25.112403 74.344688-25.112403 74.344687l43.07234 268.816148c7.136712 22.386904 27.31801 17.723622 27.31801 17.723623 22.402659-4.931106 19.440844-25.600788 19.440844-25.600788l-44.805317-275.700791c-2.709745-11.327364 0.740454-15.754331 0.740454-15.754331 7.625096-8.617619 17.975692-3.450198 17.975692-3.450198l175.519 122.096064c6.900397 9.106003 17.471553 8.617619 17.471553 8.617619 11.327364 1.228838 18.716145-8.129235 18.716145-8.129234l237.149943-252.557679 227.114435 256.259946c15.265947 12.067817 30.279824 1.228838 30.279824 1.228838l190.595895-126.255208c11.264347-6.191452 16.652328 0.425367 16.652328 0.425367 5.41949 4.426967 1.512416 17.503062 1.512415 17.503062l-89.106495 551.401581c-3.450198 12.304132-15.754331 14.273424-15.754331 14.273424H158.630358c-12.808271-0.992523-14.273424-10.334841-14.273424-10.334841l-22.654728-152.627958c0-10.83898 10.334841-9.846457 10.334841-9.846456h436.631281c34.517739 0 36.991169-21.662205 36.991169-21.662205 0-28.562602-36.991169-26.593311-36.991169-26.593311H126.144928c-60.071264 6.396258-52.682483 60.559648-52.682483 60.559648l24.119881 160.505123c5.41949 46.286224 50.713191 48.255516 50.713191 48.255516h729.126188c51.201575 1.480907 59.567125-44.805317 59.567125-44.805317l91.579926-565.186621c5.41949-47.262993-20.181298-62.528939-20.181298-62.52894zM513.228838 46.680082a60.654174 60.654174 0 1 1 0 121.308348 60.654174 60.654174 0 0 1 0-121.308348z" p-id="5992"></path></svg>