<?xml version="1.0" standalone="no"?><!DOCTYPE svg PUBLIC "-//W3C//DTD SVG 1.1//EN" "http://www.w3.org/Graphics/SVG/1.1/DTD/svg11.dtd"><svg t="1556510387820" class="icon" style="" viewBox="0 0 1024 1024" version="1.1" xmlns="http://www.w3.org/2000/svg" p-id="9432" xmlns:xlink="http://www.w3.org/1999/xlink" width="64" height="64"><defs><style type="text/css"></style></defs><path d="M870.4 76.8v870.4H332.8C235.52 947.2 153.6 865.28 153.6 768V76.8h716.8m25.6-76.8h-768c-30.72 0-51.2 20.48-51.2 51.2v716.8c0 143.36 112.64 256 256 256h563.2c30.72 0 51.2-20.48 51.2-51.2V51.2c0-30.72-20.48-51.2-51.2-51.2z" fill="#3A71B8" p-id="9433"></path><path d="M332.8 204.8h153.6c30.72 0 51.2 20.48 51.2 51.2v153.6c0 30.72-20.48 51.2-51.2 51.2h-153.6c-30.72 0-51.2-20.48-51.2-51.2V256c0-30.72 20.48-51.2 51.2-51.2zM322.56 563.2h384c20.48 0 40.96 15.36 40.96 40.96s-15.36 40.96-40.96 40.96H322.56c-20.48 0-40.96-15.36-40.96-40.96s15.36-40.96 40.96-40.96z" fill="#EBBF3F" p-id="9434"></path><path d="M322.56 716.8h179.2c20.48 0 40.96 15.36 40.96 40.96s-15.36 40.96-40.96 40.96H322.56c-20.48 0-40.96-15.36-40.96-40.96s15.36-40.96 40.96-40.96z" fill="#F5C53A" p-id="9435"></path></svg>