<?xml version="1.0" standalone="no"?><!DOCTYPE svg PUBLIC "-//W3C//DTD SVG 1.1//EN" "http://www.w3.org/Graphics/SVG/1.1/DTD/svg11.dtd"><svg t="1556510258511" class="icon" style="" viewBox="0 0 1024 1024" version="1.1" xmlns="http://www.w3.org/2000/svg" p-id="8635" xmlns:xlink="http://www.w3.org/1999/xlink" width="64" height="64"><defs><style type="text/css"></style></defs><path d="M508.586667 285.866667m-146.773334 0a146.773333 146.773333 0 1 0 293.546667 0 146.773333 146.773333 0 1 0-293.546667 0Z" fill="#d81e06" p-id="8636"></path><path d="M497.493333 884.906667c117.76 0 222.549333-25.088 289.792-64 0.682667-9.386667 1.194667-18.773333 1.194667-28.330667 0-173.397333-123.733333-314.026667-276.48-314.026667s-276.48 140.629333-276.48 314.026667c0 14.848 0.853333 29.525333 2.730667 43.861333 66.389333 30.037333 158.037333 48.469333 259.242666 48.469334z" fill="#d81e06" p-id="8637"></path><path d="M849.578667 371.2m-79.872 0a79.872 79.872 0 1 0 159.744 0 79.872 79.872 0 1 0-159.744 0Z" fill="#d81e06" p-id="8638"></path><path d="M851.285333 476.16c-42.837333 0-81.578667 20.48-109.056 53.077333 45.909333 31.232 79.36 93.525333 87.210667 167.594667 4.608 0.170667 9.216 0.170667 13.994667 0.170667 64 0 121.173333-13.653333 157.696-34.816 0.341333-5.12 0.682667-10.24 0.682666-15.36 0-94.208-67.413333-170.666667-150.528-170.666667z" fill="#d81e06" p-id="8639"></path><path d="M174.421333 371.2m-79.872 0a79.872 79.872 0 1 0 159.744 0 79.872 79.872 0 1 0-159.744 0Z" fill="#d81e06" p-id="8640"></path><path d="M172.714667 476.16c42.837333 0 81.578667 20.48 109.056 53.077333-45.909333 31.232-79.36 93.525333-87.210667 167.594667-4.608 0.170667-9.216 0.170667-13.994667 0.170667-64 0-121.173333-13.653333-157.696-34.816-0.341333-5.12-0.682667-10.24-0.682666-15.36 0.170667-94.208 67.242667-170.666667 150.528-170.666667z" fill="#d81e06" p-id="8641"></path></svg>