<?xml version="1.0" standalone="no"?><!DOCTYPE svg PUBLIC "-//W3C//DTD SVG 1.1//EN" "http://www.w3.org/Graphics/SVG/1.1/DTD/svg11.dtd"><svg t="1557027425762" class="icon" style="" viewBox="0 0 1121 1024" version="1.1" xmlns="http://www.w3.org/2000/svg" p-id="5254" xmlns:xlink="http://www.w3.org/1999/xlink" width="70.0625" height="64"><defs><style type="text/css"></style></defs><path d="M738.06019 578.169905c32.280381-48.810667 53.784381-108.885333 53.784381-172.714667 0-150.186667-104.009143-274.139429-229.473523-274.139428-125.513143 0-229.522286 123.904-229.522286 274.139428 0 67.584 17.944381 127.658667 53.784381 172.714667-60.952381 22.528-103.960381 82.602667-103.960381 153.941333v108.934095c0 90.112 68.120381 165.205333 154.185143 165.205334h254.537143c86.113524 0 154.233905-75.093333 154.233904-165.205334v-108.934095c-3.608381-71.338667-46.616381-131.413333-107.568762-153.941333z m-354.986666-172.714667c0-120.198095 78.896762-217.819429 179.297524-217.819428s179.248762 97.621333 179.248762 217.819428c0 120.149333-78.848 217.770667-179.248762 217.770667-100.449524 0-179.297524-97.621333-179.297524-217.770667z m408.771047 424.326095c0 67.584-57.392762 123.904-125.513142 123.904H454.753524c-68.120381 0-125.464381-56.32-125.464381-123.904v-82.602666c0-56.368762 39.448381-105.179429 96.792381-120.198096 39.448381 33.792 82.456381 52.565333 132.632381 52.565334 50.224762 0 96.841143-18.773333 132.729905-52.565334a123.026286 123.026286 0 0 1 96.79238 120.198096v82.602666h3.608381z m204.361143-375.515428c32.280381-48.810667 53.784381-108.934095 53.784381-172.763429 0-150.186667-103.960381-274.090667-229.473524-274.090666-93.232762 0-175.689143 67.584-211.577904 161.401904l50.224762 18.822096c28.672-75.093333 89.624381-123.904 161.401904-123.904 100.352 0 179.248762 97.621333 179.248762 217.770666 0 120.198095-78.896762 217.819429-179.297524 217.819429-28.672 0-57.344-7.509333-82.456381-26.331429l-17.94438 52.614095c28.672 18.773333 64.560762 26.282667 100.449523 26.282667 50.176 0 96.792381-18.773333 132.632381-52.565333a123.026286 123.026286 0 0 1 96.792381 120.149333v82.602667c0 67.632762-57.344 123.952762-125.464381 123.952762h-111.177143l-21.504 56.32h157.744762c86.064762 0 154.185143-75.093333 154.185143-165.254096v-108.885333c-3.559619-71.338667-46.616381-131.413333-107.568762-153.941333zM307.785143 7.41181c-125.513143 0-229.522286 123.855238-229.522286 274.090666 0 67.584 17.944381 127.707429 53.784381 172.763429-60.952381 22.528-103.960381 82.602667-103.960381 153.941333v108.934095c0 93.866667 68.120381 165.205333 150.576762 165.205334h143.457524l-7.168-56.32h-111.177143c-68.120381 0-125.513143-56.32-125.513143-123.904v-82.651429c0-56.32 39.497143-105.130667 96.841143-120.149333 39.448381 33.792 82.456381 52.565333 132.632381 52.565333 35.888762 0 68.169143-11.264 100.449524-26.282667l-17.944381-52.565333c-25.112381 15.018667-53.784381 26.282667-82.505143 26.282667-100.400762 0-179.248762-97.621333-179.248762-217.819429 0-120.149333 78.848-217.770667 179.248762-217.770666 71.728762 0 132.681143 52.565333 161.401905 123.904l50.176-18.773334C483.474286 74.99581 400.969143 7.41181 307.785143 7.41181z" p-id="5255"></path></svg>