<?xml version="1.0" standalone="no"?><!DOCTYPE svg PUBLIC "-//W3C//DTD SVG 1.1//EN" "http://www.w3.org/Graphics/SVG/1.1/DTD/svg11.dtd"><svg t="1556510217534" class="icon" style="" viewBox="0 0 1518 1024" version="1.1" xmlns="http://www.w3.org/2000/svg" p-id="8299" xmlns:xlink="http://www.w3.org/1999/xlink" width="94.875" height="64"><defs><style type="text/css"></style></defs><path d="M1359.448276 765.057471c9.416092 0 17.655172 8.23908 17.655172 17.655173s-8.23908 17.655172-17.655172 17.655172-17.655172-8.23908-17.655173-17.655172 8.23908-17.655172 17.655173-17.655173zM64.735632 270.712644c9.416092 0 17.655172 8.23908 17.655173 17.655172S74.151724 306.022989 64.735632 306.022989 47.08046 297.783908 47.08046 288.367816 55.31954 270.712644 64.735632 270.712644z" fill="#E1B365" p-id="8300"></path><path d="M1347.678161 294.252874c9.416092 0 17.655172 8.23908 17.655172 17.655172s-8.23908 17.655172-17.655172 17.655172-17.655172-8.23908-17.655172-17.655172 8.23908-17.655172 17.655172-17.655172zM229.517241 835.678161c9.416092 0 17.655172 8.23908 17.655173 17.655172s-8.23908 17.655172-17.655173 17.655173-17.655172-8.23908-17.655172-17.655173 8.23908-17.655172 17.655172-17.655172z" fill="#E1B365" p-id="8301"></path><path d="M1477.149425 529.655172c-16.478161 0-29.425287-12.947126-29.425287-29.425287s12.947126-29.425287 29.425287-29.425287 29.425287 12.947126 29.425288 29.425287-12.947126 29.425287-29.425288 29.425287z m0-47.080459c-9.416092 0-17.655172 8.23908-17.655172 17.655172s8.23908 17.655172 17.655172 17.655172 17.655172-8.23908 17.655173-17.655172-8.23908-17.655172-17.655173-17.655172zM123.586207 58.850575C107.108046 58.850575 94.16092 45.903448 94.16092 29.425287S107.108046 0 123.586207 0 153.011494 12.947126 153.011494 29.425287 140.064368 58.850575 123.586207 58.850575z m0-47.08046C114.170115 11.770115 105.931034 20.009195 105.931034 29.425287S114.170115 47.08046 123.586207 47.08046 141.241379 38.841379 141.241379 29.425287 133.002299 11.770115 123.586207 11.770115z" fill="#E1B365" p-id="8302"></path><path d="M188.321839 906.298851h1271.172414v23.540229H188.321839zM0 965.149425h812.137931v23.54023H0v-23.54023z m706.206897 35.310345h812.137931v23.54023H706.206897v-23.54023z" fill="#FBF4E7" p-id="8303"></path><path d="M715.622989 297.783908h18.832183V470.804598h-18.832183zM841.563218 196.56092h22.363219v254.234482h-22.363219z" fill="#E1B365" p-id="8304"></path><path d="M1215.852874 906.298851H374.289655c-20.009195 0-35.310345-15.301149-35.310345-35.310345V236.57931l21.186207 24.717242c105.931034 124.763218 262.473563 196.56092 428.432184 196.560919 173.02069 0 334.271264-77.682759 441.37931-211.862069l21.186207-25.894253V870.988506c0 20.009195-15.301149 35.310345-35.310344 35.310345zM362.51954 298.96092V870.988506c0 7.062069 4.708046 11.770115 11.770115 11.770115h841.563219c7.062069 0 11.770115-4.708046 11.770115-11.770115V284.836782C1115.806897 410.777011 958.087356 481.397701 788.597701 481.397701c-162.427586 0-315.43908-65.912644-426.078161-182.436781z" fill="#E1B365" p-id="8305"></path><path d="M503.76092 394.298851V48.257471c0-7.062069 4.708046-11.770115 11.770114-11.770115h198.914943c10.593103 31.77931 40.018391 54.142529 75.328736 54.142529s64.735632-22.363218 75.328735-54.142529h196.56092c7.062069 0 11.770115 4.708046 11.770115 11.770115v344.864368c8.23908-4.708046 15.301149-9.416092 23.54023-14.124138V48.257471c0-20.009195-15.301149-35.310345-35.310345-35.310345H845.094253c0 30.602299-24.717241 54.142529-55.31954 54.142529s-55.31954-24.717241-55.319541-54.142529H515.531034c-20.009195 0-35.310345 15.301149-35.310344 35.310345v330.74023c8.23908 5.885057 15.301149 10.593103 23.54023 15.30115zM481.397701 823.908046l-3.531034-15.301149c7.062069 1.177011 12.947126 1.177011 18.832184 1.177011s9.416092-3.531034 9.416092-10.593103v-54.142529l-31.779311 10.593103-3.531034-16.478161c11.770115-2.354023 23.54023-5.885057 35.310345-9.416092v-51.788505h-31.779311v-15.30115H506.114943v-41.195402h15.301149v41.195402h28.248276v15.30115h-28.248276v45.903448c9.416092-3.531034 18.832184-8.23908 28.248276-12.947126v16.47816c-9.416092 4.708046-18.832184 8.23908-28.248276 12.947127v63.558621c0 12.947126-7.062069 20.009195-20.009195 20.009195h-20.009196z m184.790805-187.144828c-25.894253 9.416092-55.31954 15.301149-87.098851 16.478161V694.436782h92.983908v15.301149h-34.133333v118.878161h-16.478161V708.56092h-42.372414v9.416091c-1.177011 44.726437-11.770115 80.036782-32.956322 107.108046l-11.770115-11.770114c17.655172-23.54023 27.071264-54.142529 28.248276-95.337932v-80.036781c35.310345-1.177011 67.089655-7.062069 95.337931-17.655173l8.239081 16.478161zM772.11954 726.216092c-8.23908 4.708046-17.655172 8.23908-25.894253 11.770115v64.735632c0 14.124138-7.062069 20.009195-20.009195 20.009195h-22.363218l-3.531035-15.301149c7.062069 1.177011 14.124138 1.177011 20.009195 1.177012 7.062069 0 10.593103-3.531034 10.593104-10.593104v-54.142529l-31.77931 10.593104-4.708046-14.124138c11.770115-2.354023 23.54023-7.062069 35.310344-10.593104v-51.788505h-31.77931v-15.30115H729.747126v-40.018391h15.30115v40.018391h25.894253v15.30115h-25.894253v45.903448c9.416092-3.531034 17.655172-8.23908 25.894253-12.947126v15.301149z m112.993104 94.160919h-15.30115v-15.301149H800.367816v15.301149h-15.301149V641.471264h100.045977v178.905747z m-15.30115-30.602298V656.772414H800.367816V788.597701h69.443678zM961.618391 755.641379v-11.770115c-11.770115 8.23908-23.54023 16.478161-36.487357 22.363219l-9.416091-14.124138c23.54023-10.593103 43.549425-24.717241 58.850574-41.195402h-51.788506v-15.30115h63.558621c4.708046-8.23908 9.416092-16.478161 12.947127-24.717241h-64.735633v-14.124138h70.62069c3.531034-11.770115 7.062069-24.717241 9.416092-37.664368l15.301149 2.354023c-2.354023 12.947126-4.708046 24.717241-8.23908 36.487356h45.903448l-11.770115-7.062069c7.062069-9.416092 12.947126-18.832184 17.655173-30.602299l12.947126 4.708046c-4.708046 12.947126-11.770115 23.54023-18.832184 32.956322h35.310345v14.124138h-87.09885c-3.531034 8.23908-8.23908 16.478161-11.770115 24.717242h110.63908v15.301149h-49.434483c11.770115 15.301149 29.425287 29.425287 55.319541 41.195402l-8.239081 11.770115c-12.947126-7.062069-23.54023-15.301149-32.956322-22.363218-1.177011 20.009195-2.354023 35.310345-3.531034 48.257471-2.354023 12.947126-4.708046 21.186207-9.416092 25.894253-4.708046 4.708046-10.593103 7.062069-20.009196 8.23908h-32.956321l-4.708046-15.301149c10.593103 0 20.009195 1.177011 29.425287 1.177012s15.301149-3.531034 18.832184-10.593104c3.531034-7.062069 4.708046-22.363218 5.885057-44.726437h-55.31954c-4.708046 16.478161-10.593103 30.602299-18.832184 40.018391-9.416092 10.593103-23.54023 21.186207-43.549425 30.602299l-10.593104-12.947126c17.655172-7.062069 30.602299-16.478161 40.018391-24.717242 7.062069-8.23908 12.947126-20.009195 17.655173-32.956322h-30.602299z m22.363218-104.754023l-12.947126 5.885058c-5.885057-11.770115-10.593103-22.363218-17.655173-31.779311l14.124138-4.708046c5.885057 10.593103 11.770115 20.009195 16.478161 30.602299zM965.149425 740.34023h111.816092c-11.770115-9.416092-20.009195-20.009195-27.071264-29.425287h-55.31954c-8.23908 10.593103-17.655172 21.186207-29.425288 29.425287z" fill="#E1B365" p-id="8306"></path></svg>