<?xml version="1.0" standalone="no"?><!DOCTYPE svg PUBLIC "-//W3C//DTD SVG 1.1//EN" "http://www.w3.org/Graphics/SVG/1.1/DTD/svg11.dtd"><svg t="1557026467343" class="icon" style="" viewBox="0 0 1024 1024" version="1.1" xmlns="http://www.w3.org/2000/svg" p-id="3470" xmlns:xlink="http://www.w3.org/1999/xlink" width="64" height="64"><defs><style type="text/css"></style></defs><path d="M512.78406333 451.75689888a124.30841446 124.30841446 0 0 1-89.21250342-36.22836113 124.29141998 124.29141998 0 0 1-36.57983781-89.06727791c0-72.02413559 98.65911484-174.13467407 108.03388596-185.48003196 10.02210617-9.27743913 25.49557686-9.27743913 35.51768303 0 10.85097312 11.34613037 108.03388596 113.45666886 108.03388596 185.48003196a124.29528236 124.29528236 0 0 1-36.5798378 89.06727791 124.30918694 124.30918694 0 0 1-89.21327592 36.22836113z m0-257.00823783a289.59514617 289.59514617 0 0 0-76.46123885 131.71259879c0 42.22663881 34.23460007 76.46123887 76.46123886 76.46123886s76.46278381-34.23460007 76.46278381-76.46123886a287.06374169 287.06374169 0 0 0-76.46278381-131.71259881z m-67.08878516 694.56579207H243.93608284a24.67057228 24.67057228 0 0 1-21.21219635-11.83897019l-67.58085251-112.47253417a260.98649025 260.98649025 0 0 1-36.9985199-133.68473052V326.46125984a24.66748238 24.66748238 0 0 1 24.66207505-24.66748237c50.69452285 0.06797791 95.71829796 32.39919663 111.98123931 80.4093647l30.09103775 90.7644081c43.04778098-17.84883499 92.45999335 2.13435173 110.99478722 44.89399911l49.33110237 117.89995194a302.44142532 302.44142532 0 0 1 23.6771679 115.92086791v112.96923638c-0.21474838 12.97064781-10.2577114 23.65013122-23.18664551 24.66284752z m-187.94577599-49.32955741h163.27829361V751.68236923a246.65937424 246.65937424 0 0 0-19.72826957-96.18950844l-49.32724-118.39279174a36.01284027 36.01284027 0 0 0-22.69612311-19.73135948 35.50455093 35.50455093 0 0 0-36.19823457 8.99394035 35.5284977 35.5284977 0 0 0-8.19828987 36.38903618l49.32724 122.83066749a24.65357781 24.65357781 0 0 1-1.4476204 26.44572258 24.67288972 24.67288972 0 0 1-24.57401276 9.88537788 24.65203285 24.65203285 0 0 1-19.35516357-18.07980537L239.49357223 581.495821a83.87392043 83.87392043 0 0 1 5.42819024-73.00827027l-37.00006485-110.49962997a69.04083252 69.04083252 0 0 0-40.44762612-42.42130279v275.75160027a211.59822464 211.59822464 0 0 0 30.09026527 108.5251808l60.18516541 100.14149667z m523.88176918 49.32955741H579.87284851c-13.51060868-0.26341438-24.40484048-11.15223884-24.66825485-24.66284751V751.68236923a302.50940323 302.50940323 0 0 1 23.67871284-115.92086791l49.33419228-117.89995194c18.5332489-42.75964736 67.94159889-62.74283408 110.99169731-44.89399911l30.0894928-90.7644081c16.4336586-48.53081705 62.22681999-80.97945213 113.46207619-80.4093647a24.66593742 24.66593742 0 0 1 17.43710518 7.22574233 24.66207504 24.66207504 0 0 1 7.22574234 17.44174004v304.8569584a260.99884988 260.99884988 0 0 1-36.9985199 133.685503l-67.58085251 112.47253418a24.66979981 24.66979981 0 0 1-21.21296883 11.8381977z m-177.09094047-49.32955741h163.2782936l60.1851654-98.6598873a211.60517692 211.60517692 0 0 0 30.08949281-108.52595331V355.56661797a69.04314995 69.04314995 0 0 0-40.44762612 42.42130279l-36.99851989 110.49962997a82.89287567 82.89287567 0 0 1 5.91948509 73.9970398l-49.32955742 122.8306675a23.70420457 23.70420457 0 0 1-12.80379295 13.71994972 23.70034218 23.70034218 0 0 1-18.76730919 0.09269714 24.18391228 24.18391228 0 0 1-13.75393868-13.08651924 24.17155266 24.17155266 0 0 1-0.05870818-18.97587776l49.33032989-122.83607483c6.25551223-15.50745964 0.67668915-33.27132225-13.32057953-42.42130279a33.54323387 33.54323387 0 0 0-29.59742546-4.43787576 35.98425865 35.98425865 0 0 0-22.68917083 19.73135948L626.24150467 655.49440574a246.67173386 246.67173386 0 0 0-19.72672463 96.18950845l-1.97444915 88.30098152z m0 0" p-id="3471"></path></svg>