<?xml version="1.0" standalone="no"?><!DOCTYPE svg PUBLIC "-//W3C//DTD SVG 1.1//EN" "http://www.w3.org/Graphics/SVG/1.1/DTD/svg11.dtd"><svg t="1556510442902" class="icon" style="" viewBox="0 0 1024 1024" version="1.1" xmlns="http://www.w3.org/2000/svg" p-id="10208" xmlns:xlink="http://www.w3.org/1999/xlink" width="64" height="64"><defs><style type="text/css"></style></defs><path d="M77.172861 182.235237l208.090315 0 0 659.475276L77.172861 841.710512 77.172861 182.235237 77.172861 182.235237zM536.708096 233.576427l196.936077-67.27119 213.178865 624.069281-196.934079 67.317159L536.708096 233.576427 536.708096 233.576427zM772.098901 605.977939c-36.271208 12.356622-55.632081 51.822664-43.248478 88.09707 12.409586 36.272207 51.822664 55.657065 88.121054 43.242482 36.269409-12.350626 55.632281-51.869632 43.220696-88.085078C847.806571 612.899246 808.36931 593.565355 772.098901 605.977939L772.098901 605.977939zM618.281589 378.982442l15.625406 45.804744 142.830761-48.789721-15.66438-45.801746L618.281589 378.982442 618.281589 378.982442zM585.739852 283.754207l15.684366 45.852712 142.768803-48.788721-15.633401-45.858708L585.739852 283.754207 585.739852 283.754207zM315.621593 182.235237l208.118296 0 0 659.475276L315.621593 841.710512 315.621593 182.235237 315.621593 182.235237zM418.021965 610.722722c-38.349799 0-69.407742 31.048949-69.407742 69.396749 0 38.348999 31.057943 69.398748 69.407742 69.398748 38.319819 0 69.396749-31.049948 69.396749-69.398748C487.418714 641.771471 456.341784 610.722722 418.021965 610.722722L418.021965 610.722722zM345.824115 346.170688l0 48.46594 150.887298 0 0-48.46594L345.824115 346.170688 345.824115 346.170688zM345.824115 245.613066l0 48.414975 150.887298 0 0-48.414975L345.824115 245.613066 345.824115 245.613066zM179.568237 610.722722c-38.348999 0-69.400746 31.048949-69.400746 69.396749 0 38.348999 31.051947 69.398748 69.400746 69.398748 38.319819 0 69.367769-31.049948 69.367769-69.398748C248.936005 641.771471 217.888056 610.722722 179.568237 610.722722L179.568237 610.722722zM107.346403 346.170688l0 48.46594 150.911282 0 0-48.46594L107.346403 346.170688 107.346403 346.170688zM107.346403 245.613066l0 48.414975 150.911282 0 0-48.414975L107.346403 245.613066z" p-id="10209" fill="#d4237a"></path></svg>