<?xml version="1.0" standalone="no"?><!DOCTYPE svg PUBLIC "-//W3C//DTD SVG 1.1//EN" "http://www.w3.org/Graphics/SVG/1.1/DTD/svg11.dtd"><svg t="1556506373280" class="icon" style="" viewBox="0 0 1024 1024" version="1.1" xmlns="http://www.w3.org/2000/svg" p-id="1553" xmlns:xlink="http://www.w3.org/1999/xlink" width="32" height="32"><defs><style type="text/css"></style></defs><path d="M882.529 773.81c-29.949-20.083-52.659-49.054-67.498-86.108-11.813-29.496-16.004-58.676-16.004-74.701V479.753h0.912c0-124.882-79.501-231.183-190.646-271.091v-47.107c0-53.215-43.293-96.508-96.508-96.508s-96.508 43.293-96.508 96.508v46.533C304.28 247.539 224 354.262 224 479.753h0.982V613c0 16.025-4.191 45.205-16.003 74.701-14.839 37.055-37.549 66.025-67.498 86.108a31.182 31.182 0 0 0 17.366 57.078h195.5c14.418 73.63 79.425 129.362 157.214 129.362s142.797-55.732 157.215-129.362h196.389a31.18 31.18 0 0 0 17.364-57.077z m-403.89-612.255c0-18.828 15.318-34.146 34.146-34.146s34.146 15.318 34.146 34.146v32.347a290.68 290.68 0 0 0-34.962-2.118c-11.275 0-22.393 0.67-33.331 1.931v-32.16z m32.922 734.633c-42.229 0-78.187-27.369-91.067-65.3H602.63c-12.881 37.93-48.839 65.3-91.069 65.3zM235.176 768.525c12.649-17.364 23.307-36.694 31.695-57.64 18.997-47.437 20.473-86.916 20.473-97.886V471.655c4.265-120.393 103.191-216.688 224.625-216.688 122.061 0 221.394 97.289 224.696 218.552V613c0 10.97 1.476 50.449 20.473 97.886 8.388 20.945 19.046 40.275 31.695 57.64H235.176z" p-id="1554"></path></svg>