<?xml version="1.0" standalone="no"?><!DOCTYPE svg PUBLIC "-//W3C//DTD SVG 1.1//EN" "http://www.w3.org/Graphics/SVG/1.1/DTD/svg11.dtd"><svg t="1556509804199" class="icon" style="" viewBox="0 0 1024 1024" version="1.1" xmlns="http://www.w3.org/2000/svg" p-id="7546" xmlns:xlink="http://www.w3.org/1999/xlink" width="64" height="64"><defs><style type="text/css"></style></defs><path d="M1010.427 705.137H1021V919.78c0 55.809-45.437 101.221-101.266 101.221h-815.49C48.437 1021.001 3 975.589 3 919.78V705.296h10.574c50.43 0 91.46-41.032 91.46-91.439 0-50.431-41.03-91.461-91.46-91.461H3V330.707c0-55.83 45.437-101.222 101.244-101.222h45.483l16.064-60.146c12.63-45.459 52.214-75.916 98.578-75.916 6.778 0 13.851 0.881 21.374 1.807l4.79 0.588 54.768 15.229L378.604 53.5c26.706-46.408 84.457-65.884 137.509-36.761l367.832 212.746h35.608c55.828 0 101.265 45.392 101.265 101.222v191.689h-10.595c-24.697 0-47.787 9.489-64.96 26.729-17.057 17.104-26.41 40.015-26.345 64.506v0.023c0.001 50.45 41.079 91.483 91.509 91.483z m-56.034 214.281V761.486c-61.568-23.205-102.396-81.656-102.396-147.833 0-66.11 40.693-124.629 102.036-147.969V330.526c0-19.092-15.524-34.637-34.638-34.637H103.906c-19.115 0-34.66 15.545-34.66 34.637v135.181c61.456 23.521 102.216 81.948 102.216 147.788 0 66.088-40.625 124.583-101.854 147.991v157.932c0 19.094 15.545 34.638 34.636 34.638h815.491c19.114 0 34.658-15.544 34.658-34.638zM637.984 642.687H536.402v34.342h101.582c19.838 0 35.97 16.382 35.97 36.49 0 20.132-16.132 36.489-35.97 36.489H536.402v49.413c0 20.132-16.109 36.489-35.947 36.489-19.815 0-35.948-16.357-35.948-36.489v-49.413H362.925c-19.837 0-35.97-16.357-35.97-36.489 0-20.108 16.133-36.49 35.97-36.49h101.582v-34.523H362.925c-19.837 0-35.97-16.357-35.97-36.466 0-20.155 16.133-36.513 35.97-36.513h61.297L337.483 481.5c-14.099-14.595-14.076-37.077 0-51.356 14.37-14.257 36.535-14.257 50.543 0.023l112.269 113.897 112.249-113.897c14.369-14.326 36.556-14.235 50.586-0.023 14.077 14.596 13.965 37.167-0.156 51.492l-86.785 88.072h61.298c20.11 0 36.467 16.358 36.467 36.467 0 20.153-16.132 36.512-35.97 36.512zM229.845 186.104l-11.251 43.019h309.495l-254.546-68.55c-2.982-0.724-5.648-0.724-9.715-0.724-15.953 0.001-29.599 10.53-33.983 26.255z m205.041-99.369l-24.018 42.319 310.713 83.44L481.498 73.653c-16.628-8.247-37.189-2.869-46.612 13.082z" fill="#EB5E1B" p-id="7547"></path></svg>