<?xml version="1.0" standalone="no"?><!DOCTYPE svg PUBLIC "-//W3C//DTD SVG 1.1//EN" "http://www.w3.org/Graphics/SVG/1.1/DTD/svg11.dtd"><svg t="1557024792502" class="icon" style="" viewBox="0 0 1024 1024" version="1.1" xmlns="http://www.w3.org/2000/svg" p-id="2011" xmlns:xlink="http://www.w3.org/1999/xlink" width="64" height="64"><defs><style type="text/css"></style></defs><path d="M963.2 624l-73.6-41.6c3.2-22.4 6.4-44.8 6.4-70.4 0-22.4-3.2-48-6.4-70.4l73.6-41.6c32-19.2 41.6-57.6 22.4-86.4l-64-112c-19.2-32-57.6-41.6-86.4-22.4l-73.6 41.6c-35.2-28.8-76.8-54.4-121.6-70.4V64c0-35.2-28.8-64-64-64H448c-35.2 0-64 28.8-64 64v86.4c-44.8 16-86.4 38.4-121.6 70.4L188.8 176c-32-16-70.4-6.4-89.6 25.6l-64 112C16 345.6 28.8 384 57.6 400l73.6 41.6c0 22.4-3.2 48-3.2 70.4 0 22.4 3.2 48 6.4 70.4L60.8 624c-32 19.2-41.6 57.6-22.4 86.4l64 112c19.2 32 57.6 41.6 86.4 22.4l73.6-41.6c35.2 28.8 76.8 54.4 121.6 70.4V960c0 35.2 28.8 64 64 64h128c35.2 0 64-28.8 64-64v-86.4c44.8-16 86.4-38.4 121.6-70.4l73.6 41.6c32 19.2 70.4 6.4 86.4-22.4l64-112c19.2-28.8 9.6-67.2-22.4-86.4z m-96 166.4L752 723.2c-44.8 51.2-105.6 86.4-176 102.4V960H448V825.6c-70.4-12.8-131.2-51.2-176-102.4l-115.2 67.2-64-112L208 611.2c-9.6-28.8-16-64-16-99.2s6.4-70.4 16-102.4L92.8 342.4l64-112L272 297.6c44.8-51.2 105.6-86.4 176-102.4V64h128v134.4c70.4 12.8 131.2 51.2 176 102.4l115.2-67.2 64 112L816 412.8c9.6 32 16 67.2 16 102.4s-6.4 70.4-16 102.4l115.2 67.2-64 105.6zM512 320c-105.6 0-192 86.4-192 192s86.4 192 192 192 192-86.4 192-192-86.4-192-192-192z m0 320c-70.4 0-128-57.6-128-128s57.6-128 128-128 128 57.6 128 128-57.6 128-128 128z" fill="" p-id="2012"></path></svg>