<?xml version="1.0" standalone="no"?><!DOCTYPE svg PUBLIC "-//W3C//DTD SVG 1.1//EN" "http://www.w3.org/Graphics/SVG/1.1/DTD/svg11.dtd"><svg t="1557028322174" class="icon" style="" viewBox="0 0 1024 1024" version="1.1" xmlns="http://www.w3.org/2000/svg" p-id="6729" xmlns:xlink="http://www.w3.org/1999/xlink" width="64" height="64"><defs><style type="text/css"></style></defs><path d="M927.069367 274.385231c-17.847483 0-32.313963 14.46648-32.313963 32.311916V839.390445c0 22.567995-18.358113 40.927131-40.925085 40.927132H169.684634c-22.565948 0-40.922015-18.359137-40.922015-40.927132V182.347025c0-22.565948 18.35709-40.919968 40.922015-40.919969h125.986389c3.361561 0 6.602372-0.51677 9.650801-1.468444h247.669776c17.84646 0 32.31294-14.468526 32.31294-32.313963 0-17.844413-14.46648-32.311917-32.31294-32.311917H169.684634c-58.20054 0-105.549941 47.347354-105.549941 105.548918V840.85889c0 58.202587 47.348378 105.550964 105.549941 105.550964h334.181105c3.360538 0 6.604418-0.515746 9.650801-1.466398H853.830319c58.201563 0 105.551988-47.349401 105.551988-105.553011V306.696124c0-17.845437-14.46648-32.310893-32.31294-32.310893z" p-id="6730"></path><path d="M709.399859 214.966956l-132.333958 128.157845-140.085502-125.42664c-12.609179-11.287067-31.785937-10.937097-43.970444 0.804318L187.044 416.908248c-12.851703 12.378935-13.232372 32.835849-0.853437 45.687552 6.342452 6.582929 14.804171 9.894348 23.276123 9.894348a32.212656 32.212656 0 0 0 22.414499-9.039887L416.231843 285.863656l140.141784 125.479853c12.630668 11.308557 31.854499 10.933003 44.032865-0.861624l154.697292-149.809981 47.26242 47.260374a21.539572 21.539572 0 0 0 21.055548 5.507434 21.545712 21.545712 0 0 0 15.112186-15.665795L883.884822 110.688985a21.538549 21.538549 0 0 0-5.701862-20.307512 21.535479 21.535479 0 0 0-20.306488-5.703908l-187.086979 45.354977a21.543665 21.543665 0 0 0-10.156314 36.168758l48.76668 48.765656zM233.838769 676.93854l-0.945535 80.306c-0.205685 17.84339 14.086833 32.479739 31.933294 32.689517 0.128937 0 0.255827 0.004093 0.385786 0.004093 17.668405 0 32.094976-14.217816 32.30373-31.93227l0.945535-80.308047c0.208754-17.842367-14.086833-32.479739-31.933293-32.689517-17.876136-0.25378-32.479739 14.08581-32.689517 31.930224zM442.133769 492.894873c-17.781992 0-32.236192 14.382569-32.308846 32.181957l-0.942465 232.41842c-0.073678 17.844413 14.334473 32.367175 32.17991 32.443923h0.135076c17.785062 0 32.238238-14.382569 32.311917-32.181956l0.942465-232.419444c0.072655-17.844413-14.335497-32.370245-32.184004-32.443923l-0.134053 0.001023zM591.393211 560.892547c-17.757432 0-32.205493 14.34573-32.308846 32.128745l-0.942465 164.417676c-0.103354 17.842367 14.283308 32.396851 32.126698 32.495089h0.191358c17.757432 0 32.205493-14.340613 32.3068-32.126698l0.945535-164.415631c0.103354-17.84646-14.282285-32.397874-32.126698-32.500204l-0.192382 0.001023zM757.638513 396.527059c-17.799388 0-32.258705 14.405081-32.30987 32.218795l-0.944511 328.783165c-0.054235 17.847483 14.374382 32.356942 32.218795 32.409131h0.095168c17.801435 0 32.258705-14.408151 32.30987-32.221866l0.946558-328.786235c0.052189-17.84646-14.376429-32.353872-32.221866-32.408107-0.031722 0.005117-0.059352 0.005117-0.094144 0.005117z" p-id="6731"></path></svg>