<?xml version="1.0" standalone="no"?><!DOCTYPE svg PUBLIC "-//W3C//DTD SVG 1.1//EN" "http://www.w3.org/Graphics/SVG/1.1/DTD/svg11.dtd"><svg t="1557027074352" class="icon" style="" viewBox="0 0 1024 1024" version="1.1" xmlns="http://www.w3.org/2000/svg" p-id="4991" xmlns:xlink="http://www.w3.org/1999/xlink" width="64" height="64"><defs><style type="text/css"></style></defs><path d="M687.445333 647.827911a53.703111 53.703111 0 0 0-53.6576 53.634845c0 29.627733 24.075378 53.680356 53.6576 53.680355s53.6576-24.075378 53.6576-53.680355a53.680356 53.680356 0 0 0-53.6576-53.634845z" p-id="4992"></path><path d="M884.303644 689.288533l-0.386844-1.251555a31.061333 31.061333 0 0 0-0.728178-2.207289c-0.341333-0.841956-0.773689-1.615644-1.137778-2.298311l-0.318577-0.523378c-0.432356-0.864711-0.6144-1.297067-0.910223-1.683911a24.553244 24.553244 0 0 0-2.366577-3.094756c-0.4096-0.477867-0.500622-0.659911-0.682667-0.796444a27.830044 27.830044 0 0 0-17.954133-8.783645l-0.728178-0.091022c-0.500622-0.068267-1.092267-0.159289-1.774933-0.159289H829.895111l-0.432355-1.774933a144.634311 144.634311 0 0 0-17.2032-40.641422l-0.978489-1.547378 19.6608-19.615289a28.034844 28.034844 0 0 0 8.100977-20.821333l-0.091022-0.750934a30.060089 30.060089 0 0 0-0.523378-4.187022l-0.341333-1.2288-0.386844-1.251555a15.9744 15.9744 0 0 0-0.841956-2.389334c-0.318578-0.8192-0.728178-1.547378-1.069511-2.184533l-0.500622-0.910222c-0.318578-0.6144-0.546133-1.115022-0.887467-1.592889a35.248356 35.248356 0 0 0-3.436089-4.232533l-7.259022-7.259023a29.741511 29.741511 0 0 0-4.255289-3.458844c-0.477867-0.341333-0.887467-0.523378-1.251555-0.705422l-0.750934-0.4096c-1.092267-0.591644-1.797689-1.046756-2.6624-1.388089a18.113422 18.113422 0 0 0-2.366578-0.796445l-0.682666-0.182044c-0.910222-0.295822-1.342578-0.455111-1.8432-0.523378a24.621511 24.621511 0 0 0-3.800178-0.523378c-0.568889-0.045511-0.841956-0.091022-1.137778-0.091022h-0.841955a27.943822 27.943822 0 0 0-19.933867 8.100978l-19.638044 19.592533-1.570134-0.955733a145.8176 145.8176 0 0 0-40.664178-17.2032l-1.774933-0.455111v-27.352178c0-0.659911-0.113778-1.2288-0.159289-1.683911l-0.068266-0.682667a28.307911 28.307911 0 0 0-5.415823-14.336 31.357156 31.357156 0 0 0-3.936711-4.164266 36.704711 36.704711 0 0 0-3.322311-2.594134c-0.364089-0.250311-0.728178-0.432356-0.978489-0.568889l-0.728178-0.341333c-1.024-0.568889-1.865956-1.069511-2.798933-1.4336a18.204444 18.204444 0 0 0-2.366578-0.728178l-1.092266-0.341333a11.764622 11.764622 0 0 0-1.592889-0.477867 29.923556 29.923556 0 0 0-5.461334-0.500622h-10.308266c-1.820444 0-3.663644 0.182044-5.461334 0.500622a10.0352 10.0352 0 0 0-1.501866 0.455111l-1.183289 0.341334c-0.750933 0.2048-1.524622 0.455111-2.366578 0.773689-0.978489 0.386844-1.797689 0.864711-2.525867 1.274311l-0.568888 0.318577c-0.568889 0.295822-0.978489 0.477867-1.410845 0.773689-1.183289 0.728178-2.184533 1.615644-3.163022 2.389334l-0.796445 0.659911a27.989333 27.989333 0 0 0-8.715377 17.931378l-0.113778 0.705422c-0.045511 0.477867-0.136533 1.069511-0.136533 1.752178v27.374933l-1.774934 0.455111a143.701333 143.701333 0 0 0-40.641422 17.225956l-1.570133 0.978488-19.615289-19.638044a27.807289 27.807289 0 0 0-19.979378-8.100978h-0.841956l-0.750933 0.045511c-1.4336 0.136533-2.776178 0.250311-4.164267 0.523378-0.523378 0.091022-0.887467 0.250311-1.2288 0.341333l-1.410844 0.432356c-0.637156 0.2048-1.4336 0.455111-2.298311 0.773689-0.8192 0.341333-1.524622 0.773689-2.184533 1.115022l-1.024 0.568889a43.303822 43.303822 0 0 0-1.4336 0.750933c-1.524622 1.069511-2.958222 2.2528-4.278045 3.527111l-7.259022 7.259023a26.396444 26.396444 0 0 0-3.458845 4.255289c-0.318578 0.477867-0.546133 0.955733-0.750933 1.342577l-2.366578-0.477866 2.048 1.069511-0.318577 0.568889a17.658311 17.658311 0 0 0-1.115023 2.184533c-0.364089 0.750933-0.568889 1.524622-0.750933 2.207289l-0.4096 1.365333c-0.091022 0.341333-0.273067 0.773689-0.364089 1.274311-0.318578 1.365333-0.432356 2.685156-0.523378 3.8912l-0.045511 1.115023a28.0576 28.0576 0 0 0 8.055467 20.753066l19.615289 19.547022-0.955734 1.570134a145.2032 145.2032 0 0 0-17.180444 40.618666l-0.455111 1.797689h-27.4432a8.692622 8.692622 0 0 0-1.706667 0.159289l-0.796444 0.091022a27.989333 27.989333 0 0 0-18.295467 9.193245c-1.046756 1.251556-1.888711 2.275556-2.6624 3.413333a6.781156 6.781156 0 0 0-0.659911 1.251556l-0.318578 0.523378c-0.6144 1.160533-1.024 1.911467-1.410844 2.798933-0.341333 0.773689-0.546133 1.570133-0.750934 2.298311l-0.341333 1.137778c-0.113778 0.432356-0.318578 0.978489-0.455111 1.615644a27.192889 27.192889 0 0 0-0.523378 5.438578v10.308267c0 1.820444 0.159289 3.618133 0.523378 5.438577a13.9264 13.9264 0 0 0 0.432356 1.547378l0.227555 0.637156a21.9136 21.9136 0 0 0 0.887467 2.8672c0.386844 0.887467 0.8192 1.661156 1.183289 2.343822l0.295822 0.523378-1.865956 1.547378 2.161778-0.978489c0.136533 0.341333 0.341333 0.682667 0.591645 1.069511 0.796444 1.2288 1.661156 2.275556 2.412088 3.140266l0.705423 0.887467a28.080356 28.080356 0 0 0 17.908622 8.669867l0.364089 2.389333 0.318578-2.321067c0.523378 0.091022 1.137778 0.159289 1.797688 0.159289h27.420445l0.432355 1.797689c3.458844 13.858133 9.238756 27.556978 17.2032 40.618667l0.978489 1.547378-19.6608 19.638044a27.875556 27.875556 0 0 0-8.078222 20.775822l0.022756 0.659911c0.159289 1.661156 0.273067 2.980978 0.568889 4.323556 0.091022 0.432356 0.227556 0.864711 0.364088 1.183289l0.364089 1.274311c0.227556 0.728178 0.455111 1.524622 0.796445 2.366578s0.773689 1.570133 1.160533 2.207289l0.477867 0.864711c0.318578 0.6144 0.546133 1.115022 0.864711 1.615644 1.069511 1.547378 2.230044 2.980978 3.458844 4.255289l7.281778 7.281778c1.274311 1.274311 2.707911 2.434844 4.255289 3.4816 0.477867 0.318578 0.932978 0.523378 1.319822 0.705422l0.682667 0.386845c1.115022 0.6144 1.820444 1.046756 2.639644 1.388088 0.841956 0.341333 1.592889 0.568889 2.298311 0.773689v2.4576l0.637156-2.275555 0.705422 0.182044c0.341333 0.113778 0.728178 0.250311 1.251556 0.364089 1.410844 0.318578 2.753422 0.432356 3.913955 0.500622l1.979734 0.159289c1.069511 0 2.2528-0.091022 3.572622-0.295822 6.530844-0.910222 11.992178-3.618133 16.292978-7.850667l19.547022-19.638044 1.592889 0.955733a143.36 143.36 0 0 0 40.641422 17.180445l1.797689 0.455111v27.352178c0 0.659911 0.091022 1.297067 0.159289 1.729422l0.068266 0.8192a28.307911 28.307911 0 0 0 8.715378 17.8176 2.048 2.048 0 0 0 0.659911 0.500622 21.390222 21.390222 0 0 0 3.322311 2.594133c0.455111 0.295822 0.8192 0.477867 1.160534 0.682667l0.523378 0.227556c1.092267 0.637156 1.865956 1.069511 2.821688 1.479111 0.841956 0.341333 1.615644 0.523378 2.343823 0.728177l1.115022 0.341334c0.500622 0.159289 1.024 0.341333 1.615644 0.455111 1.820444 0.386844 3.640889 0.568889 5.461334 0.568889h10.308266c1.797689 0 3.640889-0.2048 5.438578-0.568889 0.6144-0.113778 1.137778-0.295822 1.524622-0.4096l0.659911-0.227556c1.2288-0.364089 2.025244-0.546133 2.8672-0.864711 0.932978-0.432356 1.774933-0.864711 2.480356-1.297066l0.705422-0.364089c0.477867-0.273067 0.910222-0.477867 1.319822-0.750934 1.160533-0.728178 2.207289-1.592889 3.117512-2.389333 0.4096-0.318578 0.591644-0.477867 0.841955-0.637156a27.943822 27.943822 0 0 0 8.715378-17.908622l0.091022-0.773689a10.945422 10.945422 0 0 0 0.159289-1.729422v-27.352178l1.774933-0.432355a143.9744 143.9744 0 0 0 40.664178-17.248711l1.570133-0.955734 19.615289 19.638045a27.943822 27.943822 0 0 0 19.888356 8.100978l2.116267-0.136534c1.024-0.068267 2.366578-0.2048 3.731911-0.477866l1.297066-0.341334 0.568889-0.2048 1.365334 2.025245-0.659912-2.2528c0.773689-0.227556 1.524622-0.455111 2.343823-0.773689s1.456356-0.705422 2.093511-1.069511l1.706666 1.706666-1.137777-2.048 0.659911-0.341333c0.364089-0.182044 0.8192-0.4096 1.297066-0.728178 1.592889-1.069511 3.026489-2.230044 4.278045-3.458844l7.281778-7.281778c1.251556-1.274311 2.412089-2.685156 3.458844-4.255289 0.318578-0.500622 0.568889-1.001244 0.750933-1.342578l0.364089-0.659911c0.6144-1.115022 1.046756-1.774933 1.365334-2.594133 0.386844-0.910222 0.6144-1.706667 0.841955-2.434845l0.341334-1.183288c0.091022-0.386844 0.273067-0.8192 0.364088-1.297067 0.318578-1.365333 0.455111-2.707911 0.523378-3.868445l0.091022-1.115022a28.763022 28.763022 0 0 0-0.250311-4.460089 27.989333 27.989333 0 0 0-7.850666-16.292977l-19.6608-19.6608 0.955733-1.547378a145.703822 145.703822 0 0 0 17.2032-40.641422l0.477867-1.774934h27.420444a8.829156 8.829156 0 0 0 1.683911-0.159289 27.989333 27.989333 0 0 0 18.659556-8.8064l0.477866-0.546133c0.978489-1.137778 1.8432-2.207289 2.616889-3.345067 0.295822-0.477867 0.523378-0.910222 0.705423-1.251555l0.250311-0.523378c0.637156-1.115022 1.069511-1.865956 1.4336-2.730667 0.364089-0.841956 0.546133-1.661156 0.750933-2.366577l0.318578-1.115023a12.834133 12.834133 0 0 0 0.477866-1.615644 26.624 26.624 0 0 0 0.546134-5.461333h0.045511v-10.24c0-1.797689-0.2048-3.640889-0.546133-5.438578-0.136533-0.659911-0.341333-1.183289-0.455112-1.615645zM687.445333 781.653333a80.258844 80.258844 0 0 1-80.167822-80.167822c0-44.145778 35.953778-80.122311 80.167822-80.122311a80.236089 80.236089 0 0 1 80.145067 80.122311 80.236089 80.236089 0 0 1-80.145067 80.167822z" p-id="4993"></path><path d="M918.755556 0H105.289956A105.312711 105.312711 0 0 0 0 105.289956v813.420088A105.289956 105.289956 0 0 0 105.289956 1024h813.4656A105.2672 105.2672 0 0 0 1024 918.710044V105.289956A105.2672 105.2672 0 0 0 918.755556 0z m-183.614578 135.031467h25.645511c58.618311 0 90.339556 39.389867 90.385067 91.272533V516.778667c-10.467556-7.168-13.789867-11.377778-25.122134-14.7456-10.376533-3.117511-27.2384-3.254044-36.4544 1.979733l-0.4096-266.171733c0-26.919822-18.249956-45.169778-45.147022-45.169778h-8.897422c-12.4928 0-26.919822-7.5776-26.919822-27.101867 0-21.9136 14.427022-30.537956 26.919822-30.537955zM333.824 91.5456h340.286578a10.422044 10.422044 0 0 1 0 20.821333H333.824a10.422044 10.422044 0 0 1 0-20.821333z m9.261511 52.315022h321.786311a19.638044 19.638044 0 1 1 0 39.253334H343.085511a19.615289 19.615289 0 1 1 0-39.253334z m-23.256178 185.1392v0.295822c0 1.160533 0.136533 2.321067 0.295823 3.527112 1.160533-12.674844 6.917689-29.309156 32.221866-29.309156h328.430934c16.270222-0.796444 24.257422 12.970667 24.257422 25.508978s-8.760889 27.943822-28.285156 27.943822H348.319289c-18.090667 0-26.646756-12.515556-28.194133-24.120889a70.405689 70.405689 0 0 0-0.295823 5.916445v-9.489067-0.273067z m249.218845 130.730667c0 11.446044-11.127467 24.052622-22.619022 26.123378-1.706667 0.250311-3.413333 0.432356-5.12 0.796444h-198.428445c-12.4928 0-20.457244-14.472533-20.457244-26.919822 0-12.538311 10.558578-26.100622 23.096889-26.100622h199.566222c12.424533 0 23.005867 12.606578 23.9616 26.100622z m-229.467022 112.958578h130.525866c12.515556 0 23.074133 9.6256 24.029867 23.074133 0 10.103467-5.711644 21.868089-14.472533 26.077867-1.456356 0.341333-2.844444 0.864711-4.255289 1.297066-0.796444 0.159289-1.570133 0.4096-2.412089 0.4096h-131.504356c-12.515556 0-24.962844-15.223467-24.962844-27.784533 0-12.470044 10.581333-23.074133 23.051378-23.074133z m147.296711 262.712889h-218.953956c-61.485511 0-95.118222-39.344356-95.118222-95.095467V226.304c0-51.882667 26.874311-91.272533 90.3168-91.272533h20.775822c12.4928 0 24.644267 8.192 24.644267 29.718755 0 12.515556-6.303289 27.943822-24.644267 27.943822h-6.121244c-26.897067 0-45.147022 18.249956-45.147023 45.169778l0.796445 494.842311c0 26.919822 29.764267 45.124267 56.661333 45.124267h211.535645a61.348978 61.348978 0 0 0-16.907378 42.279822c0.022756 5.256533 0.910222 10.308267 2.161778 15.291734z m424.823466-128.773689a54.4768 54.4768 0 0 1-54.431289 54.408533h-7.759644l-0.477867 1.410844-2.548622-0.045511 2.184533 0.841956a179.996444 179.996444 0 0 1-3.868444 9.375289l-0.6144 1.388089 5.484089 5.484089c10.308267 10.262756 15.928889 23.938844 15.928889 38.479644s-5.643378 28.216889-15.928889 38.456889l-7.259022 7.259022c-10.285511 10.308267-24.007111 15.928889-38.5024 15.928889a53.703111 53.703111 0 0 1-38.434134-15.928889l-5.552355-5.461333-1.342578 0.591644c-3.003733 1.365333-6.280533 2.730667-10.126222 4.164267l-1.456356 0.568889v7.7824a54.454044 54.454044 0 0 1-54.385778 54.385778h-10.308266a54.4768 54.4768 0 0 1-54.454045-54.385778v-7.7824l-1.410844-0.568889a149.003378 149.003378 0 0 1-10.103467-4.164267l-1.410844-0.591644-5.506845 5.461333c-10.262756 10.308267-23.938844 15.928889-38.456889 15.928889a53.703111 53.703111 0 0 1-38.434133-15.928889l-7.304533-7.259022a53.953422 53.953422 0 0 1-15.951645-38.456889c0-14.563556 5.666133-28.194133 15.951645-38.479644l5.461333-5.484089-0.591644-1.388089a170.8032 170.8032 0 0 1-3.868445-9.352534l-0.887466-2.230044h-7.714134a54.499556 54.499556 0 0 1-54.454044-54.408533v-10.285511a54.499556 54.499556 0 0 1 54.454044-54.408534h7.759645l0.841955-2.207289a184.092444 184.092444 0 0 1 3.8912-9.352533l0.6144-1.388089-5.484089-5.506844a53.885156 53.885156 0 0 1-15.928889-38.456889c0-14.5408 5.666133-28.171378 15.928889-38.456889l7.281778-7.259022a54.158222 54.158222 0 0 1 38.479645-15.951645c14.518044 0 28.194133 5.688889 38.456888 15.951645l5.461334 5.484089 1.4336-0.6144c2.958222-1.342578 6.280533-2.707911 10.103466-4.164267l1.4336-0.523378v-7.805155a54.499556 54.499556 0 0 1 54.454045-54.408534h10.285511a54.4768 54.4768 0 0 1 54.431289 54.408534v7.805155l1.4336 0.523378c3.822933 1.4336 7.122489 2.821689 10.103467 4.164267l1.410844 0.637155 5.438578-5.506844a54.226489 54.226489 0 0 1 38.479644-15.951645c14.5408 0 28.216889 5.688889 38.5024 15.951645l7.259022 7.259022c10.262756 10.285511 15.928889 23.9616 15.928889 38.456889 0 14.563556-5.666133 28.216889-15.928889 38.479644l-5.484088 5.484089 0.591644 1.410845c1.274311 2.730667 2.525867 5.779911 3.868444 9.329777l-1.865955 1.524623 2.161778-0.955734 0.591644 1.615645h7.759645a54.4768 54.4768 0 0 1 54.408533 54.408533v10.308267h-0.022756z" p-id="4994"></path></svg>