<?xml version="1.0" standalone="no"?><!DOCTYPE svg PUBLIC "-//W3C//DTD SVG 1.1//EN" "http://www.w3.org/Graphics/SVG/1.1/DTD/svg11.dtd"><svg t="1556508840480" class="icon" style="" viewBox="0 0 1024 1024" version="1.1" xmlns="http://www.w3.org/2000/svg" p-id="6741" xmlns:xlink="http://www.w3.org/1999/xlink" width="64" height="64"><defs><style type="text/css"></style></defs><path d="M773.034667 222.506667c0 49.237333-51.2 86.186667-89.685334 110.805333 97.152 65.792 253.184 217.728 230.656 406.613333-22.528 188.842667-160.170667 203.221333-160.170666 203.221334H269.354667s-145.365333-30.378667-160.170667-203.221334c-14.848-172.8 91.690667-318.464 230.613333-406.613333-38.485333-24.576-89.6-61.568-89.6-110.805333 0-49.365333 19.157333-74.026667 38.442667-86.272a122.794667 122.794667 0 0 1 62.293333-17.365334c16.512 0 34.218667 3.413333 53.034667 11.178667 25.344-36.565333 63.274667-48.981333 107.733333-49.194667 44.202667 0.213333 82.176 12.629333 107.52 49.194667a138.666667 138.666667 0 0 1 53.034667-11.178667 122.88 122.88 0 0 1 62.293333 17.365334c19.285333 12.245333 38.485333 36.906667 38.485334 86.272z m-261.205334 585.898666c13.653333 0 24.746667-13.354667 24.746667-29.781333V720.213333h85.034667c13.653333 0 24.746667-13.354667 24.746666-29.781333 0-16.426667-11.093333-29.781333-24.746666-29.781333h-86.357334v-50.645334h86.741334c13.653333 0 24.746667-13.354667 24.746666-29.824 0-16.426667-11.093333-29.781333-24.746666-29.781333h-68.437334l85.162667-99.114667a27.392 27.392 0 0 0 7.552-19.370666 27.392 27.392 0 0 0-7.509333-19.328 22.613333 22.613333 0 0 0-17.237334-8.362667c-6.570667 0-12.757333 3.072-17.450666 8.661333l-92.245334 111.146667-92.288-111.146667a22.656 22.656 0 0 0-17.450666-8.661333 22.613333 22.613333 0 0 0-17.194667 8.362667 27.349333 27.349333 0 0 0-7.509333 19.328c0 7.509333 2.730667 14.592 7.509333 19.370666l85.205333 99.114667H402.005333c-13.653333 0-24.746667 13.354667-24.746666 29.781333 0 16.469333 11.093333 29.824 24.746666 29.824h83.797334v50.645334H402.005333c-13.653333 0-24.746667 13.354667-24.746666 29.781333 0 16.426667 11.093333 29.781333 24.746666 29.781333h85.077334v58.410667c0 7.893333 2.56 15.488 7.253333 21.077333 4.693333 5.632 10.88 8.704 17.493333 8.704z" fill="#13227a" p-id="6742"></path></svg>