<?xml version="1.0" standalone="no"?><!DOCTYPE svg PUBLIC "-//W3C//DTD SVG 1.1//EN" "http://www.w3.org/Graphics/SVG/1.1/DTD/svg11.dtd"><svg t="1557026058452" class="icon" style="" viewBox="0 0 1024 1024" version="1.1" xmlns="http://www.w3.org/2000/svg" p-id="2740" xmlns:xlink="http://www.w3.org/1999/xlink" width="64" height="64"><defs><style type="text/css"></style></defs><path d="M890.957658 497.199412c-42.645762 0-79.270946-21.573738-97.33268-54.686918-18.061734 33.614895-54.686918 54.686918-97.33268 54.686918-42.645762 0-79.270946-21.573738-97.33268-54.686918-18.061734 33.614895-54.686918 54.686918-97.33268 54.686918-42.645762 0-79.270946-21.573738-97.33268-54.686918-19.065164 33.11318-55.690348 54.686918-98.33611 54.686918-42.645762 0-79.270946-21.573738-97.33268-54.686918-18.061734 33.614895-54.686918 54.686918-97.33268 54.686918-36.625184 0-67.229789-15.051445-88.301813-45.656051C1.417237 423.949045-1.593052 384.313572 13.960108 351.200392l118.906419-283.468888C147.416257 24.584027 187.05173 0 229.697492 0h548.374326c42.645762 0 82.281235 27.594317 97.33268 67.229789l115.896129 283.468888c15.051445 33.614895 9.030867 73.250367-12.041156 100.342969-18.061734 27.594317-51.676629 46.157766-88.301813 46.157766z m-97.33268-158.541891c24.584027 0 45.656051 21.573738 45.656051 45.656051 0 27.594317 24.584027 51.676629 51.676629 51.676629 15.051445 0 30.604606-6.020578 42.645762-21.573738 9.030867-9.030867 9.030867-27.594317 3.010289-39.635473l-115.896129-283.468888c-9.030867-18.061734-24.584027-30.604606-42.645762-30.604606H229.697492c-18.061734 0-36.625184 12.041156-42.645762 27.594317L68.145311 371.770701c-6.020578 15.051445-6.020578 30.604606 3.01029 39.635472 9.030867 15.051445 24.584027 24.584027 42.645761 24.584028 27.594317 0 51.676629-24.584027 51.67663-51.676629 0-24.584027 21.573738-45.656051 45.65605-45.656051 24.584027 0 45.656051 21.573738 45.656051 45.656051 0 27.594317 24.584027 51.676629 51.67663 51.676629C336.061039 435.990201 360.143352 411.406173 360.143352 384.313572c0-24.584027 21.573738-45.656051 45.656051-45.656051 24.584027 0 45.656051 21.573738 45.656051 45.656051 0 27.594317 24.584027 51.676629 51.676629 51.676629 27.594317 0 51.676629-24.584027 51.676629-51.676629 0-24.584027 21.573738-45.656051 45.656051-45.656051 24.584027 0 45.656051 21.573738 45.656051 45.656051 0 27.594317 24.584027 51.676629 51.676629 51.676629 27.594317 0 51.676629-24.584027 51.676629-51.676629-1.505145-27.594317 19.566879-45.656051 44.150906-45.656051z m-225.269965 682.33219c-15.051445 0-30.604606-6.020578-42.645762-18.061735-12.041156-12.041156-18.061734-27.594317-18.061735-42.645761l3.010289-204.197943H385.229094l-3.010289 207.208232c0 33.614895-27.594317 60.707496-60.707496 60.707496h-85.291524c-67.229789 0-121.916707-54.686918-121.916708-121.916707v-320.094072c0-18.061734 12.041156-30.604606 30.604606-30.604606 18.061734 0 30.604606 12.041156 30.604605 30.604606v317.083782c0 33.614895 27.594317 60.707496 60.707497 60.707497h85.291524l3.010289-207.208232c0-33.614895 27.594317-60.707496 60.707496-60.707496h124.926996c15.051445 0 30.604606 6.020578 42.645762 18.061735 12.041156 12.041156 18.061734 27.594317 18.061735 42.645761l-3.010289 204.197943h201.187653c33.614895 0 60.707496-27.594317 60.707496-60.707497v-314.073493c0-18.061734 12.041156-30.604606 30.604606-30.604606 18.061734 0 30.604606 12.041156 30.604605 30.604606v317.083782c0 67.229789-54.686918 121.916707-121.916707 121.916708h-200.685938z" p-id="2741"></path></svg>