<?xml version="1.0" standalone="no"?><!DOCTYPE svg PUBLIC "-//W3C//DTD SVG 1.1//EN" "http://www.w3.org/Graphics/SVG/1.1/DTD/svg11.dtd"><svg t="1556510298269" class="icon" style="" viewBox="0 0 1024 1024" version="1.1" xmlns="http://www.w3.org/2000/svg" p-id="8847" xmlns:xlink="http://www.w3.org/1999/xlink" width="64" height="64"><defs><style type="text/css"></style></defs><path d="M967.111111 170.666667H56.888889V85.845333C56.888889 38.627556 94.151111 0 139.662222 0h744.675556C929.848889 0 967.111111 38.627556 967.111111 85.845333V170.666667z m0 56.888889v710.599111c0 47.217778-37.262222 85.845333-82.773333 85.845333H139.662222C94.151111 1024 56.888889 985.372444 56.888889 938.154667V227.555556h910.222222zM171.52 114.517333a28.444444 28.444444 0 1 0 0-56.888889 28.444444 28.444444 0 0 0 0 56.888889z m67.128889 0a28.444444 28.444444 0 1 0 0-56.888889 28.444444 28.444444 0 0 0 0 56.888889z m67.015111 0a28.444444 28.444444 0 1 0 0-56.888889 28.444444 28.444444 0 0 0 0 56.888889zM796.444444 521.102222V362.211556a14.506667 14.506667 0 0 0-14.791111-15.530667h-86.584889v-6.542222a39.082667 39.082667 0 0 0-39.025777-38.968889H266.581333A39.082667 39.082667 0 0 0 227.555556 340.195556v69.575111c0 17.92 20.252444 33.166222 37.376 33.166222H655.985778c21.048889 0 39.025778-17.066667 39.025778-38.912v-3.640889h50.744888v109.112889l-302.819555 123.050667c-6.257778 2.332444-9.329778 7.793778-9.329778 14.791111v72.419555h-11.036444a18.147556 18.147556 0 0 0-17.92 17.92v148.024889c0 9.329778 7.793778 17.863111 17.92 17.863111h76.515555a18.147556 18.147556 0 0 0 17.976889-17.863111v-148.024889a18.147556 18.147556 0 0 0-17.976889-17.92h-10.126222V658.204444l298.097778-122.311111c6.257778-2.275556 9.329778-7.736889 9.329778-14.791111zM682.666667 56.888889v56.888889h227.555555V56.888889h-227.555555z" fill="#8F939E" p-id="8848"></path></svg>