<?xml version="1.0" standalone="no"?><!DOCTYPE svg PUBLIC "-//W3C//DTD SVG 1.1//EN" "http://www.w3.org/Graphics/SVG/1.1/DTD/svg11.dtd"><svg t="1557026806211" class="icon" style="" viewBox="0 0 1024 1024" version="1.1" xmlns="http://www.w3.org/2000/svg" p-id="4223" xmlns:xlink="http://www.w3.org/1999/xlink" width="64" height="64"><defs><style type="text/css"></style></defs><path d="M904.533333 45.511111H147.911111C79.644444 45.511111 28.444444 96.711111 28.444444 164.977778v534.755555c0 68.266667 51.2 119.466667 119.466667 119.466667h756.622222c68.266667 0 119.466667-51.2 119.466667-119.466667V164.977778c0-62.577778-51.2-119.466667-119.466667-119.466667z m51.2 659.911111c0 28.444444-22.755556 51.2-51.2 51.2H147.911111c-28.444444 0-51.2-22.755556-51.2-51.2V164.977778c0-28.444444 22.755556-51.2 51.2-51.2h756.622222c28.444444 0 51.2 22.755556 51.2 51.2v540.444444z m-85.333333 227.555556H682.666667V910.222222c0-17.066667-11.377778-28.444444-28.444445-28.444444H381.155556c-17.066667 0-28.444444 11.377778-28.444445 28.444444v17.066667H164.977778c-17.066667 0-34.133333 17.066667-34.133334 34.133333s17.066667 34.133333 34.133334 34.133334h705.422222c17.066667 0 34.133333-17.066667 34.133333-34.133334s-11.377778-28.444444-34.133333-28.444444z" p-id="4224"></path><path d="M688.355556 233.244444h-34.133334v-11.377777c0-28.444444-22.755556-51.2-51.2-51.2s-51.2 22.755556-51.2 51.2v11.377777H477.866667v-11.377777c0-28.444444-22.755556-51.2-51.2-51.2s-51.2 22.755556-51.2 51.2v11.377777h-22.755556c-51.2 0-91.022222 39.822222-91.022222 91.022223v295.822222c0 51.2 39.822222 91.022222 91.022222 91.022222h335.644445c51.2 0 91.022222-39.822222 91.022222-91.022222V324.266667c0-51.2-45.511111-91.022222-91.022222-91.022223z m-335.644445 39.822223h62.577778v-51.2c0-5.688889 5.688889-11.377778 11.377778-11.377778s11.377778 5.688889 11.377777 11.377778v51.2h153.6v-51.2c0-5.688889 5.688889-11.377778 11.377778-11.377778s11.377778 5.688889 11.377778 11.377778v51.2h73.955556c28.444444 0 51.2 22.755556 51.2 51.2v39.822222H295.822222v-39.822222c0-28.444444 22.755556-51.2 56.888889-51.2z m335.644445 398.222222H352.711111c-28.444444 0-51.2-22.755556-51.2-51.2V403.911111H739.555556v216.177778c0 28.444444-22.755556 51.2-51.2 51.2z" p-id="4225"></path><path d="M597.333333 341.333333h108.088889c11.377778 0 17.066667-11.377778 17.066667-17.066666s-11.377778-22.755556-22.755556-22.755556h-108.088889c-11.377778 0-17.066667 11.377778-17.066666 17.066667s11.377778 22.755556 22.755555 22.755555zM682.666667 438.044444H364.088889c-11.377778 0-22.755556 5.688889-22.755556 17.066667 0 11.377778 11.377778 17.066667 17.066667 17.066667H682.666667c11.377778 0 17.066667-11.377778 17.066666-17.066667 0-11.377778-5.688889-17.066667-17.066666-17.066667zM682.666667 512H364.088889c-11.377778 0-22.755556 11.377778-22.755556 17.066667s11.377778 17.066667 17.066667 17.066666H682.666667c11.377778 0 17.066667-11.377778 17.066666-17.066666S694.044444 512 682.666667 512z m-142.222223 73.955556H364.088889c-11.377778 0-17.066667 11.377778-17.066667 17.066666s5.688889 22.755556 17.066667 22.755556h176.355555c11.377778 0 17.066667-11.377778 17.066667-17.066667s-5.688889-22.755556-17.066667-22.755555z" p-id="4226"></path></svg>