<?xml version="1.0" standalone="no"?><!DOCTYPE svg PUBLIC "-//W3C//DTD SVG 1.1//EN" "http://www.w3.org/Graphics/SVG/1.1/DTD/svg11.dtd"><svg t="1556510505507" class="icon" style="" viewBox="0 0 1024 1024" version="1.1" xmlns="http://www.w3.org/2000/svg" p-id="10988" xmlns:xlink="http://www.w3.org/1999/xlink" width="64" height="64"><defs><style type="text/css"></style></defs><path d="M214.637473 169.422075v42.629091a42.629091 42.629091 0 0 0 28.774636 42.629091A42.629091 42.629091 0 0 0 299.895654 213.756329V169.422075h255.774546v42.629091a42.629091 42.629091 0 0 0 28.774636 42.629091A42.629091 42.629091 0 0 0 640.715236 213.756329V169.422075h127.887273v170.516363H149.201818v-170.516363zM149.201818 851.487529v-426.290909h618.121818V512.159966a255.774545 255.774545 0 0 0-240.428072 339.327563zM831.267273 938.450875a182.026218 182.026218 0 0 1-42.629091-5.541782A170.516364 170.516364 0 0 1 720.431636 895.821784h-1.278873q-6.181218-5.541782-11.936145-11.723l-2.131455-2.3446q-5.328636-5.968073-10.017836-12.362437l-1.705164-2.3446A170.516364 170.516364 0 0 1 831.267273 597.418147a168.598055 168.598055 0 0 1 21.314545 1.492019h4.902345a168.8112 168.8112 0 0 1 16.625346 3.410327h3.623473a170.516364 170.516364 0 0 1 38.792472 16.199054A170.516364 170.516364 0 0 1 831.267273 938.450875z" fill="#B5EAB4" p-id="10989"></path><path d="M383.661818 512.159966h-170.516364a42.629091 42.629091 0 0 0 0 85.258181h170.516364a42.629091 42.629091 0 0 0 0-85.258181zM383.661818 682.676329h-167.958618a42.629091 42.629091 0 0 0-42.629091 28.774637A42.629091 42.629091 0 0 0 213.145454 767.934511h168.8112a42.629091 42.629091 0 0 0 42.629091-28.774636A42.629091 42.629091 0 0 0 383.661818 682.676329zM851.302945 725.30542H809.952727v-40.710782a42.629091 42.629091 0 0 0-28.774636-42.629091A42.629091 42.629091 0 0 0 724.694545 682.676329v85.258182a42.629091 42.629091 0 0 0 42.629091 42.629091h85.258182a42.629091 42.629091 0 0 0 40.497636-56.483545A42.629091 42.629091 0 0 0 851.302945 725.30542z" fill="#09BB07" p-id="10990"></path><path d="M852.581818 526.867002V148.107529a63.943636 63.943636 0 0 0-63.943636-63.943636h-149.201819V44.945129a42.629091 42.629091 0 0 0-28.774636-42.62909A42.629091 42.629091 0 0 0 554.178182 43.239966v40.923927H298.403636V44.945129a42.629091 42.629091 0 0 0-28.774636-42.62909A42.629091 42.629091 0 0 0 213.145454 43.239966v40.923927H63.943636a63.943636 63.943636 0 0 0-63.943636 63.943636v724.694546a63.943636 63.943636 0 0 0 63.943636 63.943636h511.549091a255.774545 255.774545 0 1 0 277.089091-409.878709zM85.258182 169.422075h127.887272v42.629091a42.629091 42.629091 0 0 0 28.774637 42.629091A42.629091 42.629091 0 0 0 298.403636 213.756329V169.422075h255.774546v42.629091a42.629091 42.629091 0 0 0 28.774636 42.629091A42.629091 42.629091 0 0 0 639.436363 213.756329V169.422075h127.887273v170.516363H85.258182zM511.549091 767.934511a255.774545 255.774545 0 0 0 14.280745 83.553018H85.258182v-426.290909h682.065454V512.159966a255.774545 255.774545 0 0 0-255.774545 255.774545z m255.774545 170.516364a182.026218 182.026218 0 0 1-42.629091-5.541782A170.516364 170.516364 0 0 1 656.274854 895.821784h-1.278872q-6.181218-5.541782-11.936146-11.723l-2.131454-2.3446q-5.328636-5.968073-10.017837-12.362437l-1.705163-2.3446A170.516364 170.516364 0 0 1 767.323636 597.418147a168.598055 168.598055 0 0 1 21.314546 1.492019h4.902345a168.8112 168.8112 0 0 1 16.625346 3.410327h3.623472a170.516364 170.516364 0 0 1 38.792473 16.199054A170.516364 170.516364 0 0 1 767.323636 938.450875z" fill="#09BB07" p-id="10991"></path></svg>